<?xml version="1.0" encoding="UTF-8" standalone="no" ?>
<!DOCTYPE svg PUBLIC "-//W3C//DTD SVG 1.1//EN" "http://www.w3.org/Graphics/SVG/1.1/DTD/svg11.dtd">
<svg xmlns="http://www.w3.org/2000/svg" xmlns:xlink="http://www.w3.org/1999/xlink" version="1.1" width="500" height="500" viewBox="0 0 500 500" xml:space="preserve">
<desc>Created with Fabric.js 3.6.3</desc>
<defs>
</defs>
<g transform="matrix(0.183 0 0 0.183 174.17499999999995 247.67499999999995)"  >
<linearGradient id="SVGID_40492" gradientUnits="userSpaceOnUse" gradientTransform="matrix(1 0 0 1 -250 -250)"  x1="0" y1="0" x2="500" y2="500">
<stop offset="0%" style="stop-color:#8f5e25;"/>
<stop offset="50%" style="stop-color:#fbf4a1;"/>
<stop offset="100%" style="stop-color:#8f5e25;"/>
</linearGradient>
<g style=""   >
		<g transform="matrix(1 0 0 1 -5.150000000000006 0)"  >
<polygon style="stroke: none; stroke-width: 1; stroke-dasharray: none; stroke-linecap: butt; stroke-dashoffset: 0; stroke-linejoin: miter; stroke-miterlimit: 4; fill: rgb(67,72,189); fill-rule: nonzero; opacity: 1;"  points="194.15,110.19999999999999 1.8499999999999943,223.3 -192.55,113.19999999999999 -194.35,-110.1 -1.75,-223.3 192.54999999999998,-113.19999999999999 208.45000000000002,-122.5 208.45000000000002,-122.6 -1.9499999999999886,-241.8 -210.35,-119.19999999999999 -208.35,122.60000000000002 1.950000000000017,241.8 210.35,119.19999999999999 210.35,118 " />
</g>
		<g transform="matrix(1 0 0 1 -5.150000000000006 -0.05000000000001137)"  >
<polygon style="stroke: none; stroke-width: 1; stroke-dasharray: none; stroke-linecap: butt; stroke-dashoffset: 0; stroke-linejoin: miter; stroke-miterlimit: 4; fill: rgb(67,72,189); fill-rule: nonzero; opacity: 1;"  points="181.65000000000003,102.44999999999999 181.65000000000003,102.94999999999999 1.650000000000034,208.85000000000002 -179.94999999999996,105.94999999999999 -181.64999999999998,-102.94999999999999 -1.6499999999999773,-208.75 179.75000000000006,-105.94999999999999 185.15000000000003,-109.04999999999998 -0.3499999999999659,-214.14999999999998 -1.7499999999999716,-214.95 -187.04999999999995,-105.94999999999999 -185.24999999999997,109.05000000000001 1.7500000000000284,214.95 185.75000000000006,106.75 187.05,106.05000000000001 187.05,105.55000000000001 " />
</g>
</g>
</g>
<g transform="matrix(1 0 0 1 345.65999999999997 247.92499999999995)" style=""  ><path fill="#4348BD" opacity="1" d="M-110.79 11.37L-108.30 8.87L-108.30-1.30L-110.79-3.83L-125.96-3.83L-125.96-8.90L-113.33-8.90L-113.33-6.37L-108.30-6.37L-108.30-11.40L-110.79-13.97L-128.53-13.97L-131.03-11.40L-131.03-0.54L-128.53 1.27L-113.33 1.27L-113.33 6.30L-125.96 6.30L-125.96 3.81L-131.03 3.81L-131.03 8.87L-128.53 11.37Z"/><path fill="#4348BD" opacity="1" d="M-91.83 11.37L-91.83-8.90L-83.03-8.90L-83.03-13.97L-105.76-13.97L-105.76-8.90L-96.89-8.90L-96.89 11.37Z"/><path fill="#4348BD" opacity="1" d="M-77.24-1.26L-77.24-3.80L-72.20-8.90L-64.60-8.90L-64.60-1.26ZM-77.24 11.37L-77.24 3.81L-64.60 3.81L-64.60 11.37L-59.57 11.37L-59.57-13.97L-74.74-13.97L-82.30-6.33L-82.30 11.37Z"/><path fill="#4348BD" opacity="1" d="M-50.88-1.26L-50.88-8.90L-38.25-8.90L-38.25-1.26ZM-33.22 11.37L-33.22 6.30L-35.72 3.81L-33.22 1.27L-33.22-11.40L-35.72-13.97L-55.95-13.97L-55.95 11.37L-50.88 11.37L-50.88 3.81L-43.32 3.81L-40.78 6.30L-38.25 8.87L-38.25 11.37Z"/><path fill="#4348BD" opacity="1" d="M-24.53 11.37L-24.53 1.27L-9.36 1.27L-9.36-3.80L-24.53-3.80L-24.53-8.90L-8.09-8.90L-8.09-13.97L-29.60-13.97L-29.60 11.37Z"/><path fill="#4348BD" opacity="1" d="M-0.49-1.26L-0.49-8.90L12.14-8.90L12.14-1.26ZM17.17 11.37L17.17 6.30L14.68 3.81L17.17 1.27L17.17-11.40L14.68-13.97L-5.56-13.97L-5.56 11.37L-0.49 11.37L-0.49 3.81L7.07 3.81L9.61 6.30L12.14 8.87L12.14 11.37Z"/><path fill="#4348BD" opacity="1" d="M42.30 11.37L42.30 6.30L25.86 6.30L25.86 1.27L41.03 1.27L41.03-3.80L25.86-3.80L25.86-8.90L42.30-8.90L42.30-13.97L20.79-13.97L20.79 11.37Z"/><path fill="#4348BD" opacity="1" d="M58.40 11.37L58.40-8.90L67.20-8.90L67.20-13.97L44.47-13.97L44.47-8.90L53.34-8.90L53.34 11.37Z"/><path fill="#4348BD" opacity="1" d="M91.24 11.37L91.24 6.30L74.80 6.30L74.80 1.27L89.97 1.27L89.97-3.80L74.80-3.80L74.80-8.90L91.24-8.90L91.24-13.97L69.74-13.97L69.74 11.37Z"/></g><g transform="matrix(0.4748465517056885 0 0 0.4748465517056885 168.5178919378124 247.67499999999995)"  >
<g style=""   >
		<g transform="matrix(1.3333333333333335 0 0 1.3333333333333335 -0.0005520000000132086 0.0010206666667045283)"  >
<path style="stroke: none; stroke-width: 1; stroke-dasharray: none; stroke-linecap: butt; stroke-dashoffset: 0; stroke-linejoin: miter; stroke-miterlimit: 4; fill: rgb(67,72,189); fill-rule: nonzero; opacity: 1;"  transform=" translate(-49.99958599999999, -50.00076550000003)" d="m 93.777 31.48 c -0.41016 0 -0.80078 0.16406 -1.0859 0.44922 c -0.28906 0.28906 -0.45312 0.67969 -0.45312 1.0859 v 39.664 l -33.008 10.754 c -0.023438 -1.1758 0.023437 -40.547 0.003906 -42.93 l 9.0586 -3.207 v 9.6094 c 0.003906 0.48438 0.23828 0.94141 0.62891 1.2305 c 0.39062 0.28906 0.89453 0.375 1.3594 0.23828 l 12.41 -3.8242 c 0.64453 -0.19922 1.0859 -0.79297 1.0859 -1.4688 v -11.262 s 10.473 -3.707 10.512 -3.7188 c 0.60547 -0.23047 1.0039 -0.8125 0.99609 -1.4609 c -0.003906 -0.64844 -0.41016 -1.2227 -1.0156 -1.4453 l -36.082 -12.199 c -0.32031 -0.10938 -0.66406 -0.10938 -0.98438 0 l -36.082 12.203 v -0.003907 c -0.36719 0.14453 -0.66797 0.41406 -0.85547 0.76172 c -0.12109 0.21094 -0.1875 0.44922 -0.1875 0.69531 v 11.18 c 0.011719 0.83984 0.69531 1.5156 1.5352 1.5156 c 0.84375 0 1.5273 -0.67578 1.5391 -1.5156 v -9.0078 l 33.008 11.684 v 42.922 l -33.016 -10.75 c -0.015625 -4.4609 0 -28.203 0 -28.203 c 0.007813 -0.41406 -0.15234 -0.80859 -0.44141 -1.1016 c -0.28906 -0.29688 -0.68359 -0.46094 -1.0938 -0.46094 c -0.03125 0.023438 -7.9336 0 -7.9727 0.007813 c -0.83984 0.011719 -1.5117 0.69531 -1.5117 1.5352 c 0 0.83984 0.67578 1.5234 1.5117 1.5352 h 6.4336 v 6.9766 h -10.711 c -0.83984 0.015625 -1.5117 0.69922 -1.5117 1.5391 c 0 0.83594 0.67188 1.5234 1.5117 1.5352 h 10.715 v 6.9922 h -13.875 c -0.83984 0.011719 -1.5117 0.69531 -1.5117 1.5352 c 0 0.83984 0.67188 1.5234 1.5117 1.5352 h 13.875 v 7.6914 c 0 0.66406 0.42578 1.2539 1.0586 1.4609 l 36.09 11.754 c 0.30859 0.10156 0.64453 0.10156 0.95312 0 l 36.074 -11.754 c 0.63281 -0.20703 1.0625 -0.79687 1.0625 -1.4609 v -40.781 c 0 -0.40625 -0.16016 -0.79688 -0.44922 -1.0859 c -0.28906 -0.28516 -0.67969 -0.44922 -1.0859 -0.44922 z m -13.07 10.469 l -9.3398 2.875 v -8.6094 l 9.3359 -3.3047 z m -23.012 -25.879 l 31.383 10.613 l -6.8203 2.4141 l -26.145 -9.8945 c -0.78906 -0.28906 -1.6641 0.11328 -1.9609 0.89844 c -0.29688 0.78516 0.09375 1.6641 0.875 1.9727 l 22.746 8.6133 l -8.2656 2.9258 l -30.578 -11.195 z m 0 21.719 l -31.383 -11.109 l 7.9688 -2.6953 l 30.684 11.23 z" stroke-linecap="round" />
</g>
		<g transform="matrix(1.3333333333333335 0 0 1.3333333333333335 27.03104631926191 29.538033064696716)"  >
<path style="stroke: none; stroke-width: 1; stroke-dasharray: none; stroke-linecap: butt; stroke-dashoffset: 0; stroke-linejoin: miter; stroke-miterlimit: 4; fill: rgb(67,72,189); fill-rule: nonzero; opacity: 1;"  transform=" translate(-70.27328473944641, -72.15352479852254)" d="m 75.918 64.828 l -12.43 4.2109 v -0.003906 c -0.625 0.21094 -1.043 0.79688 -1.043 1.457 v 7.5352 c 0.003907 0.49219 0.24219 0.95312 0.64453 1.2422 c 0.40234 0.28516 0.91797 0.36328 1.3867 0.21094 l 12.586 -4.3008 c 0.63281 -0.21875 1.0508 -0.81641 1.0391 -1.4883 l -0.15234 -7.4414 c -0.015625 -0.48828 -0.25781 -0.9375 -0.66016 -1.2188 c -0.39844 -0.28125 -0.90625 -0.35547 -1.3711 -0.20312 z m -10.402 11.051 v -4.2852 l 9.4023 -3.1836 l 0.085937 4.2227 z" stroke-linecap="round" />
</g>
</g>
</g>
</svg>